<?xml version="1.0" encoding="UTF-8"?>
<!DOCTYPE svg PUBLIC "-//W3C//DTD SVG 1.1//EN" "http://www.w3.org/Graphics/SVG/1.1/DTD/svg11.dtd">
<!-- Creator: CorelDRAW -->
<svg xmlns="http://www.w3.org/2000/svg" xml:space="preserve" width="61.7652mm" height="40.116mm" style="shape-rendering:geometricPrecision; text-rendering:geometricPrecision; image-rendering:optimizeQuality; fill-rule:evenodd; clip-rule:evenodd"
viewBox="0 0 61.7652 40.116"
 xmlns:xlink="http://www.w3.org/1999/xlink">
 <defs>
  <style type="text/css">
   <![CDATA[
    .fil0 {fill:#BF0000}
    .fil1 {fill:#D90709}
   ]]>
  </style>
 </defs>
 <g id="Layer_x0020_1">
  <metadata id="CorelCorpID_0Corel-Layer"/>
  <path class="fil0" d="M41.1639 2.6002l5.7099 14.5033c3.5256,0.8234 7.0509,1.6467 10.5762,2.47 1.0155,-4.2493 2.0307,-8.4986 3.0462,-12.7479 -1.2411,3.9038 -2.4819,7.808 -3.723,11.7122 -1.9458,-0.5312 -3.8919,-1.0625 -5.838,-1.5937 0.423,-3.0011 0.846,-6.0019 1.269,-9.0031 0.4828,-0.9364 0.9153,-1.9161 2.1999,-2.1512 2.1153,0.0267 4.2306,0.0531 6.3459,0.0797 0.5104,0.0941 0.8978,0.3869 1.0152,1.1155 -0.4794,7.8877 -0.9588,12.5851 -1.4382,20.4728 -0.6207,0.6109 -1.2411,1.2218 -1.8615,1.8327 0.5076,0.4515 1.0152,0.903 1.5231,1.3542l-0.4282 9.4712c-8.2889,-1.4026 -18.1267,-2.2155 -28.6778,-2.2155 -10.5511,0 -20.3886,0.8129 -28.6779,2.2155l-0.4279 -9.4712c0.5076,-0.4512 1.0152,-0.9027 1.5228,-1.3542 -0.6204,-0.6109 -1.2408,-1.2218 -1.8612,-1.8327 -0.4794,-7.8877 -0.9591,-12.5851 -1.4385,-20.4728 0.111,-0.5622 0.4025,-0.9736 1.0155,-1.1155 2.115,-0.0266 4.2303,-0.053 6.3457,-0.0797 1.0529,0.1156 1.8771,0.6606 2.1999,2.1512 0.423,3.0012 0.846,6.002 1.269,9.0031 -1.9458,0.5312 -3.8919,1.0625 -5.8381,1.5937 -1.2408,-3.9042 -2.4819,-7.8084 -3.7227,-11.7122 1.0152,4.2493 2.0304,8.4986 3.0459,12.7479 3.5254,-0.8233 7.051,-1.6466 10.5763,-2.47 2.1435,-5.4444 4.287,-10.8888 6.4302,-16.3333 6.398,-0.9063 10.7488,-1.0127 16.6649,-0.3194 0.3406,0.0396 0.6866,0.0822 1.0382,0.1272 0.4623,0.0595 0.9349,0.1236 1.4189,0.1922l0.7203 1.83z"/>
  <path class="fil1" d="M30.8827 37.9005c-10.5512,0 -20.3887,0.8129 -28.6779,2.2153l-0.4279 -9.4709c0.5075,-0.4514 1.0152,-0.9029 1.5229,-1.3544 -0.6204,-0.6109 -1.2409,-1.2217 -1.8614,-1.8326 -0.4795,-7.8878 -0.9589,-12.5852 -1.4384,-20.473 0.1108,-0.5622 0.4023,-0.9736 1.0154,-1.1155 2.1152,-0.0265 4.2304,-0.053 6.3457,-0.0796 1.0527,0.1155 1.8772,0.6605 2.1998,2.1513 0.4231,3.0009 0.8461,6.002 1.2692,9.0031 -1.9461,0.5312 -3.892,1.0623 -5.8381,1.5935 -1.2409,-3.904 -2.4819,-7.8082 -3.7228,-11.7122 1.0152,4.2494 2.0306,8.4987 3.0459,12.7479 3.5255,-0.8232 7.0509,-1.6465 10.5762,-2.4699 2.1436,-5.4443 4.287,-10.8887 6.4304,-16.3333 3.6253,-0.5135 6.5932,-0.7703 9.561,-0.7703l0 37.9006z"/>
 </g>
</svg>
