<?xml version="1.0" encoding="UTF-8"?>
<!DOCTYPE svg PUBLIC "-//W3C//DTD SVG 1.1//EN" "http://www.w3.org/Graphics/SVG/1.1/DTD/svg11.dtd">
<!-- Creator: CorelDRAW -->
<svg xmlns="http://www.w3.org/2000/svg" xml:space="preserve" width="84.5112mm" height="101.14mm" style="shape-rendering:geometricPrecision; text-rendering:geometricPrecision; image-rendering:optimizeQuality; fill-rule:evenodd; clip-rule:evenodd"
viewBox="0 0 84.5112 101.14"
 xmlns:xlink="http://www.w3.org/1999/xlink">
 <defs>
  <style type="text/css">
   <![CDATA[
    .fil3 {fill:black}
    .fil0 {fill:#BF0000}
    .fil1 {fill:#D90709}
    .fil2 {fill:white}
   ]]>
  </style>
 </defs>
 <g id="Layer_x0020_1">
  <metadata id="CorelCorpID_0Corel-Layer"/>
  <path class="fil0" d="M56.3232 26.5286l7.8126 19.8444c4.824,1.1266 9.6475,2.2531 14.4711,3.3796 1.3895,-5.8142 2.7785,-11.6284 4.168,-17.4425 -1.6982,5.3415 -3.3959,10.6834 -5.0941,16.0253 -2.6623,-0.7268 -5.3251,-1.4536 -7.9879,-2.1804 0.5788,-4.1064 1.1576,-8.2124 1.7363,-12.3187 0.6606,-1.2813 1.2524,-2.6217 3.0101,-2.9434 2.8943,0.0365 5.7886,0.0726 8.6829,0.109 0.6983,0.1288 1.2284,0.5293 1.389,1.5263 -0.6559,10.7924 -1.3119,17.2198 -1.9678,28.0122 -0.8493,0.8359 -1.6982,1.6718 -2.547,2.5077 0.6945,0.6177 1.389,1.2355 2.084,1.8529l-0.5859 12.9591c-11.3415,-1.9192 -24.8022,-3.0315 -39.2389,-3.0315 -14.4367,0 -27.897,1.1123 -39.2388,3.0315l-0.5855 -12.9591c0.6945,-0.6174 1.389,-1.2352 2.0836,-1.8529 -0.8489,-0.8359 -1.6978,-1.6718 -2.5467,-2.5077 -0.6559,-10.7924 -1.3123,-17.2198 -1.9682,-28.0122 0.1518,-0.7692 0.5507,-1.3321 1.3895,-1.5263 2.8938,-0.0364 5.7881,-0.0725 8.6824,-0.109 1.4407,0.1581 2.5685,0.9038 3.0101,2.9434 0.5788,4.1063 1.1575,8.2123 1.7363,12.3187 -2.6624,0.7268 -5.3251,1.4536 -7.9879,2.1804 -1.6978,-5.3419 -3.3959,-10.6838 -5.0937,-16.0253 1.3891,5.8141 2.7782,11.6283 4.1676,17.4425 4.8236,-1.1265 9.6475,-2.253 14.4711,-3.3796 2.9329,-7.4494 5.8658,-14.8988 8.7982,-22.3482 8.7542,-1.2402 14.7072,-1.3857 22.8021,-0.437 0.4659,0.0541 0.9394,0.1124 1.4205,0.174 0.6324,0.0814 1.2792,0.169 1.9414,0.263l0.9856 2.5038z"/>
  <path class="fil1" d="M42.2557 74.8288c-14.4368,0 -27.8971,1.1122 -39.2388,3.0311l-0.5856 -12.9588c0.6945,-0.6176 1.3891,-1.2354 2.0837,-1.8531 -0.8488,-0.8359 -1.6979,-1.6716 -2.5468,-2.5075 -0.6561,-10.7926 -1.3121,-17.2198 -1.9681,-28.0124 0.1516,-0.7693 0.5504,-1.3321 1.3893,-1.5263 2.8941,-0.0363 5.7884,-0.0726 8.6826,-0.1089 1.4404,0.158 2.5685,0.9037 3.0099,2.9435 0.5789,4.1061 1.1577,8.2123 1.7366,12.3187 -2.6627,0.7268 -5.3253,1.4535 -7.988,2.1803 -1.698,-5.3418 -3.3959,-10.6837 -5.0938,-16.0254 1.3891,5.8143 2.7783,11.6284 4.1676,17.4424 4.8237,-1.1263 9.6475,-2.2528 14.4711,-3.3794 2.9329,-7.4493 5.8656,-14.8986 8.7984,-22.3482 4.9603,-0.7027 9.0212,-1.054 13.0819,-1.054l0 51.858z"/>
  <polygon class="fil2" points="40.2148,60.301 42.6456,61.9396 39.8776,61.0597 39.6712,61.4166 39.678,61.9538 39.0677,60.9942 38.5804,61.534 38.3883,60.7296 37.7571,60.7636 36.9384,61.4048 37.8305,59.9457 36.9783,60.4184 36.4121,60.5266 35.4667,61.3159 34.8804,62.0608 35.3124,61.0383 36.1743,60.2167 35.8706,59.7578 36.5412,59.1233 35.5766,59.5687 35.7448,58.9144 35.551,58.7324 34.5831,59.8958 35.0985,58.3185 34.7173,58.3944 34.5587,58.8809 34.4161,58.3826 33.4763,58.599 34.9953,57.8152 33.017,56.1497 35.4944,57.1622 36.9791,54.3924 53.3962,23.7618 55.3376,24.0248 57.167,28.6722 "/>
  <path class="fil3" d="M22.6572 81.114c-0.0998,0.1867 0.8654,1.0599 2.2385,1.7954 1.373,0.7364 2.6342,1.0573 2.7349,0.8698l3.9599 -7.3883c-2.2239,0.0801 -4.4159,0.1859 -6.5718,0.3166l-2.3615 4.4065zm-0.1067 6.1709l1.9124 0.3209 2.4493 -2.7857c-0.154,0.0267 -0.3587,0.0112 -0.7003,-0.0653 -0.9583,1.3687 -2.0974,2.1937 -3.6614,2.5301zm-0.0387 0.2512l-0.6366 1.9804c-0.1385,0.4293 -0.3725,0.8852 1.5692,0.6134l7.9362 -1.1107 -10.8389 2.1396 1.9701 -3.6227zm-6.5572 12.0596l3.196 -6.8746c0.5067,-1.1597 0.4697,-2.211 0.0929,-3.4205l-2.5473 -7.279 3.818 9.0632 -4.5596 8.5109zm-0.8302 1.5443l17.0322 -12.2489 -7.3607 -1.2303 2.7701 -3.1512c-0.4533,0.0791 -1.8376,-0.2581 -3.0377,-0.9145 -1.2113,-0.6358 -2.2583,-1.6019 -2.4441,-2.0234l-1.0891 4.052 -5.1007 -5.4483 -0.77 20.9646z"/>
  <path class="fil3" d="M68.8104 6.9607c0.8887,-1.6578 -4.12,-4.2611 -5.0078,-2.6033l-1.0143 1.8918 1.4066 3.3423 3.627 -0.7872 0.9885 -1.8436zm-1.5597 0.3828l-0.6943 1.2698 0.9928 -0.215 0.8422 -1.5864c0.3441,-0.647 -0.468,-1.4772 -1.4461,-1.9753 1.0237,1.0496 1.034,1.1726 0.3054,2.5069zm-11.6321 17.0726l1.7619 -3.3483c2.5353,-4.7987 3.054,-5.2366 5.2185,-8.7715l-8.0919 15.2556 2.0518 -2.3211 4.5888 -0.9592c4.8521,-1.0522 5.444,-0.7941 7.5758,-4.8203l-2.1877 -0.0671 2.4458 -0.4258c0.0482,-0.0929 0.0963,-0.1867 0.1462,-0.283l0.1368 -0.2667 -4.9493 0.3028 5.1463 -0.6882 1.4539 -2.8364 -2.7349 0.1118 2.9285 -0.4887 0.591 -1.1528 -0.4663 -0.1737 -0.2038 -0.2667 0.3828 -0.0293 0.3166 -0.4465 -2.3504 0.068 2.5207 -0.4078 -5.0525 0.2719 5.9644 -1.1847 1.8695 -3.6468 -10.7985 2.3426 -4.2851 -10.1842 -1.5675 3.0016 0.3252 0.7949 1.2053 -2.2135 0.4095 0.9738 -1.2518 2.1275 1.417 3.4619 -1.6793 -3.0171 -1.3369 2.2721 1.2362 1.9331 -1.213 -1.2492 2.4432 3.9926 -3.0136 -3.7466 -1.4212 2.414 1.6234 3.1935 -1.8944 -2.7323 -0.5119 0.8689 0.8922 1.4478 -1.035 -1.2052 -0.714 1.2138c-0.6332,1.6002 -0.5627,2.4553 0.0507,4.0434l2.1078 5.7021 -2.4743 -5.8664c-0.6125,-1.5881 -0.6839,-2.4432 -0.0507,-4.0434l0.7691 -1.4117 -0.3476 -0.4052 -0.874 1.6733c-0.6848,1.7214 -0.5962,2.6703 0.0447,4.3307l2.882 6.8617zm2.42 -20.038l-0.3759 -0.6745 -1.3077 2.5043 0.3717 0.5799 1.3119 -2.4097zm-1.8754 3.4446l-0.3949 -0.4912 -1.1915 2.2832 0.2951 0.5807 1.2913 -2.3727zm-1.5959 2.9319l-0.3346 -0.4818 -0.4474 0.8569 0.3063 0.4981 0.4757 -0.8732z"/>
 </g>
</svg>
