<?xml version="1.0" encoding="UTF-8"?>
<!DOCTYPE svg PUBLIC "-//W3C//DTD SVG 1.1//EN" "http://www.w3.org/Graphics/SVG/1.1/DTD/svg11.dtd">
<!-- Creator: CorelDRAW -->
<svg xmlns="http://www.w3.org/2000/svg" xml:space="preserve" width="220.215mm" height="60.8038mm" style="shape-rendering:geometricPrecision; text-rendering:geometricPrecision; image-rendering:optimizeQuality; fill-rule:evenodd; clip-rule:evenodd"
viewBox="0 0 220.215 60.8038"
 xmlns:xlink="http://www.w3.org/1999/xlink">
 <defs>
  <style type="text/css">
   <![CDATA[
    .fil5 {fill:black}
    .fil2 {fill:#BF0000}
    .fil3 {fill:#D90709}
    .fil4 {fill:white}
    .fil0 {fill:#BF0000;fill-rule:nonzero}
    .fil1 {fill:white;fill-rule:nonzero}
   ]]>
  </style>
 </defs>
 <g id="Layer_x0020_1">
  <metadata id="CorelCorpID_0Corel-Layer"/>
  <path class="fil0" d="M148.372 36.4867c0.0074,-1.3194 0.0295,-2.661 0.0627,-4.0358 0.0332,-1.3709 0.0699,-2.6572 0.1105,-3.8586 0.0405,-1.2016 0.0774,-2.2814 0.1106,-3.2398 0.0332,-0.9582 0.059,-1.6806 0.0738,-2.1707 0.409,-0.0848 0.9434,-0.1401 1.6068,-0.1622 0.6671,-0.0221 1.3305,-0.0332 1.9976,-0.0332 0.6671,0 1.2789,0.0148 1.8391,0.0442 0.5603,0.0296 0.9361,0.0517 1.1315,0.0664 -0.0148,0.4533 -0.0369,0.9546 -0.0701,1.5 -0.0331,0.5455 -0.0478,1.102 -0.0478,1.6622 0,0.5639 0.0147,1.1278 0.0478,1.6917 0.0332,0.5639 0.0849,1.1057 0.1549,1.6253 0.0295,0.2507 0.1437,0.387 0.3464,0.4091 0.0074,0 0.0148,0 0.0221,0 0.188,0 0.4017,-0.1805 0.6486,-0.538 0.236,-0.3539 0.5418,-0.8256 0.9178,-1.4153 0.3722,-0.5897 0.7666,-1.2162 1.183,-1.8723 0.4129,-0.6597 0.8183,-1.3121 1.22,-1.9607 0.398,-0.6487 0.7334,-1.2051 1.0099,-1.6733 0.1842,-0.0147 0.3722,-0.0221 0.5601,-0.0221 0.317,0 0.6487,0.0221 0.9914,0.0664 0.5493,0.07 1.1057,0.1658 1.6696,0.2838 0.5639,0.1178 1.1315,0.2469 1.6991,0.3795 0.5712,0.1327 1.113,0.258 1.6327,0.3723 -0.2248,0.4091 -0.5529,1.0024 -0.9877,1.7765 -0.435,0.7739 -0.903,1.618 -1.4043,2.5319 -0.5011,0.914 -1.0024,1.8318 -1.5,2.7532 -0.5013,0.9214 -0.9324,1.7359 -1.29,2.4508 0.3355,0.8552 0.7151,1.6696 1.1389,2.4436 0.4202,0.774 0.8514,1.5222 1.2937,2.2408 0.4423,0.7224 0.8808,1.4374 1.3194,2.1561 0.4349,0.715 0.8366,1.4706 1.2015,2.2593 -0.3944,0.1658 -0.8993,0.3169 -1.5111,0.4496 -0.6119,0.1326 -1.2384,0.2433 -1.8796,0.328 -0.6377,0.0884 -1.2494,0.1549 -1.8355,0.2027 -0.5823,0.0442 -1.043,0.0774 -1.382,0.0886 -0.5308,-0.7336 -1.032,-1.467 -1.5038,-2.2078 -0.4717,-0.7371 -0.9029,-1.4263 -1.29,-2.0712 -0.3906,-0.645 -0.7297,-1.2089 -1.0171,-1.6954 -0.2875,-0.4865 -0.5197,-0.8477 -0.7004,-1.0836 -0.1289,-0.0884 -0.2505,-0.1326 -0.3574,-0.1326 -0.0847,0 -0.1658,0.0368 -0.2359,0.1031 -0.0737,0.07 -0.1105,0.2027 -0.1105,0.4055 0,0.3537 0.0073,0.7923 0.0221,1.3157 0.0147,0.527 0.0221,1.0761 0.0221,1.6548 0,0.5749 -0.0074,1.1463 -0.0221,1.7101 -0.0148,0.5639 -0.0405,1.0799 -0.0737,1.5406 -0.1438,0.07 -0.3834,0.1401 -0.7225,0.2027 -0.3353,0.0663 -0.7222,0.1217 -1.1572,0.1695 -0.4312,0.0442 -0.8882,0.0848 -1.3599,0.1107 -0.4755,0.0294 -0.9325,0.0478 -1.3784,0.0552 -0.1439,0 -0.2876,0 -0.4313,0 -0.2727,0 -0.527,-0.0037 -0.7592,-0.011 -0.3502,-0.0148 -0.6155,-0.0442 -0.7961,-0.0848 -0.0811,-0.8292 -0.1401,-1.8354 -0.1732,-3.0259 -0.0259,-0.9509 -0.0369,-1.9423 -0.0369,-2.9779 0,-0.2543 0,-0.5124 0,-0.7777zm21.1957 -3.5086c0,-0.5714 0,-1.1353 0,-1.6954 0,-1.1168 0.0037,-2.2224 0.0111,-3.317 0.011,-1.6402 0.0406,-3.1365 0.0848,-4.4928 0.4791,-0.1142 0.9877,-0.199 1.5221,-0.2506 0.5307,-0.0553 1.0688,-0.0922 1.6143,-0.1143 0.5455,-0.0221 1.0873,-0.0331 1.6291,-0.0331 0.5416,0 1.054,0 1.5405,0 0,3.1806 -0.0553,6.3797 -0.1622,9.5935 -0.1106,3.2138 -0.2616,6.4572 -0.4534,9.7337 -0.1141,0.0736 -0.3095,0.1326 -0.5896,0.1843 -0.2765,0.0515 -0.5934,0.0995 -0.9472,0.1473 -0.3538,0.0442 -0.7298,0.0775 -1.1278,0.0996 -0.398,0.0221 -0.7813,0.0368 -1.1498,0.0442 -0.3687,0.0074 -0.7003,0.0111 -0.9952,0.0111 -0.2985,0 -0.5271,-0.0075 -0.6892,-0.0221 -0.0848,-1.489 -0.1547,-3.0812 -0.2027,-4.7766 -0.0516,-1.6953 -0.0775,-3.4018 -0.0848,-5.1118zm9.2434 0.8881c-0.0073,-1.2973 -0.011,-2.5798 -0.011,-3.8477 0,-1.2679 0.011,-2.4804 0.0295,-3.6377 0.0221,-1.1609 0.0478,-2.1744 0.0774,-3.0442 0.0884,-0.0885 0.3427,-0.1733 0.7666,-0.2617 0.4275,-0.0848 0.9472,-0.1732 1.5626,-0.2654 0.6193,-0.0884 1.2937,-0.1695 2.0234,-0.2395 0.7297,-0.0737 1.43,-0.1254 2.1045,-0.1585 0.6782,-0.0332 1.2936,-0.0553 1.8538,-0.0701 0.1069,0 0.2138,0 0.317,0 0.3943,0 0.7002,0.0221 0.914,0.0664 0.4755,1.5037 1.0026,2.978 1.5811,4.4264 0.5824,1.4447 1.1573,2.8821 1.7359,4.3084 0.0554,0.1142 0.1401,0.2137 0.2506,0.2948 0.1143,0.0848 0.2359,0.118 0.3687,0.1032 0.1326,-0.0146 0.2579,-0.0847 0.3722,-0.21 0.1142,-0.1253 0.2063,-0.317 0.269,-0.5787 0.0147,-0.0552 0.0295,-0.2395 0.0443,-0.5455 0.0146,-0.3059 0.0258,-0.6855 0.0331,-1.1424 0.0074,-0.4571 0.0184,-0.9657 0.0405,-1.5221 0.0221,-0.5603 0.0369,-1.1131 0.0442,-1.6585 0.0075,-0.5455 0.0185,-1.0616 0.0332,-1.5407 0.0148,-0.4754 0.0296,-0.8698 0.0406,-1.1794 1.371,-0.3612 2.7384,-0.5418 4.1094,-0.5418 0.5049,0 1.0136,0.0258 1.5185,0.0775 0.0221,2.1671 0.0331,4.3341 0.0331,6.5087 0,1.0873 -0.0036,2.1782 -0.011,3.2728 -0.0147,3.2691 -0.0664,6.516 -0.1511,9.741 -0.4718,0.07 -1.032,0.1474 -1.6843,0.2321 -0.6523,0.0811 -1.3526,0.166 -2.1081,0.247 -0.7556,0.0811 -1.5407,0.1511 -2.3625,0.2101 -0.8183,0.059 -1.6327,0.092 -2.4399,0.1068 -0.7998,-1.323 -1.5259,-2.7014 -2.1782,-4.1389 -0.656,-1.4374 -1.2604,-2.9078 -1.8133,-4.4116 -0.0589,-0.1658 -0.1622,-0.2875 -0.3132,-0.3685 -0.1511,-0.0775 -0.2986,-0.1032 -0.4423,-0.0738 -0.1438,0.0296 -0.2765,0.1106 -0.3943,0.2432 -0.1216,0.1328 -0.1954,0.3282 -0.2212,0.5898 -0.1437,1.3673 -0.2138,2.9263 -0.2065,4.6843 0,1.021 0.0223,2.1083 0.0665,3.2618 -0.8994,0.2358 -1.7986,0.3759 -2.7053,0.4201 -0.1585,0.0074 -0.3243,0.0111 -0.4901,0.0111 -0.752,0 -1.5296,-0.0774 -2.3331,-0.2359 -0.0553,-0.5639 -0.1105,-1.3194 -0.1585,-2.2703 -0.0478,-0.9509 -0.0847,-2.0049 -0.1141,-3.1696 -0.0296,-1.1609 -0.0442,-2.3919 -0.0517,-3.693zm22.6774 0.9399c0.0073,-0.8256 0.059,-1.6806 0.1547,-2.5652 0.0995,-0.8882 0.2433,-1.7838 0.435,-2.6831 0.1879,-0.9029 0.4348,-1.7359 0.737,-2.4988 0.3022,-0.7629 0.6671,-1.4263 1.0873,-1.9939 0.4202,-0.5676 0.9178,-0.973 1.4963,-1.2126 0.7962,-0.3501 1.7433,-0.6375 2.838,-0.8624 1.0946,-0.2285 2.2297,-0.4164 3.4018,-0.5713 1.172,-0.151 2.3256,-0.2653 3.4534,-0.3427 1.1314,-0.0774 2.1154,-0.1438 2.9521,-0.1991 0.2175,0.7114 0.3796,1.4964 0.4865,2.3625 0.0847,0.6487 0.1289,1.2458 0.1289,1.7912 0,0.2064 0.0112,0.4091 0.0296,0.6082 -0.5935,0.0405 -1.2642,0.0847 -2.0087,0.1363 -0.7407,0.0479 -1.4964,0.0996 -2.2703,0.1511 -0.7703,0.0553 -1.5221,0.1585 -2.2556,0.3133 -0.7298,0.1547 -1.3857,0.3353 -1.9608,0.5455 -0.2394,0.2358 -0.4459,0.5712 -0.6227,1.0061 -0.177,0.4313 -0.3281,0.9214 -0.4534,1.4669 -0.1253,0.5491 -0.2285,1.1241 -0.3096,1.7285 -0.0774,0.6082 -0.1252,1.2015 -0.14,1.7839 0,0.1253 0,0.2505 0,0.3795 0,0.4313 0.0184,0.844 0.0553,1.231 0.0479,0.4976 0.1289,0.9141 0.2358,1.2531 0.3391,0.1327 0.7297,0.2543 1.172,0.376 0.4423,0.1179 0.8846,0.2174 1.3232,0.3022 0.4423,0.0811 0.8513,0.1327 1.2347,0.1548 0.2359,0.0147 0.4422,0.0221 0.6154,0.0221 0.1143,0 0.2138,-0.0036 0.3022,-0.0111 0.0995,-0.3464 0.1806,-0.6375 0.2359,-0.8734 0.059,-0.2323 0.0959,-0.4608 0.1105,-0.6819 0.0148,-0.2175 0.0038,-0.4423 -0.0331,-0.6634 -0.0368,-0.2248 -0.0958,-0.505 -0.1842,-0.8366 -0.4239,-0.1916 -0.8919,-0.3022 -1.4043,-0.3317 -0.2506,-0.0147 -0.4938,-0.0222 -0.7261,-0.0222 -0.2284,0 -0.4496,0.0075 -0.6559,0.0222 -0.059,-0.4459 -0.0886,-0.8698 -0.0886,-1.2678 0,-0.1107 0.0038,-0.2248 0.0111,-0.3391 0.0222,-0.4976 0.118,-1.0283 0.2912,-1.5959 0.6044,-0.1437 1.2974,-0.2617 2.0823,-0.3575 0.7851,-0.0958 1.5812,-0.1732 2.392,-0.2285 0.8072,-0.059 1.5848,-0.1032 2.3256,-0.1364 0.7407,-0.0294 1.3673,-0.0479 1.876,-0.0479 0.059,0.9951 0.1105,2.1229 0.1547,3.3833 0.048,1.2606 0.0886,2.5358 0.1253,3.822 0.0369,1.2863 0.059,2.543 0.0738,3.7667 0.0147,1.2273 0.0221,2.3072 0.0221,3.2433 -0.3501,0.0442 -0.7851,0.081 -1.3084,0.1069 -0.5233,0.0295 -1.0725,0.0442 -1.6474,0.0442 -0.5749,0 -1.1536,-0.0221 -1.7433,-0.0664 -0.586,-0.0442 -1.1205,-0.1253 -1.607,-0.2432l0 -1.1573c-0.678,-0.059 -1.4483,-0.1253 -2.3108,-0.1916 -0.8661,-0.0664 -1.7507,-0.1475 -2.6499,-0.2395 -0.903,-0.0922 -1.7876,-0.2139 -2.6574,-0.3649 -0.866,-0.1512 -1.64,-0.3685 -2.3145,-0.6561 -0.5454,-0.2433 -0.9693,-0.4902 -1.2715,-0.7444 -0.3022,-0.2544 -0.527,-0.5529 -0.6819,-0.892 -0.1547,-0.339 -0.2616,-0.7444 -0.3206,-1.2199 -0.0552,-0.4754 -0.1105,-1.0393 -0.1584,-1.6954 -0.0369,-0.5454 -0.0553,-1.1683 -0.0553,-1.8685 0,-0.1143 0,-0.2248 0,-0.3391z"/>
  <path class="fil1" d="M59.2064 36.6015c-0.0206,-0.425 -0.0309,-0.8601 -0.0309,-1.2987 0,-0.579 0.0171,-1.1752 0.048,-1.792 0.0582,-1.0963 0.1611,-2.1551 0.3118,-3.1796 0.1508,-1.021 0.3495,-1.9701 0.5927,-2.8438 0.2433,-0.8737 0.5175,-1.583 0.8156,-2.1346 0.3803,-0.2365 0.9147,-0.4591 1.6034,-0.6716 0.6888,-0.209 1.4597,-0.4042 2.3128,-0.5791 0.8531,-0.1747 1.7542,-0.3254 2.6965,-0.4522 0.9423,-0.1267 1.8331,-0.2192 2.6691,-0.2707 0.5962,-0.0342 1.1444,-0.0514 1.648,-0.0514 0.1988,0 0.3873,0.0034 0.562,0.0103 0.6407,0.0206 1.0895,0.0994 1.3431,0.2399 0.0274,0.1815 0.0583,0.4248 0.0856,0.7263 0.0309,0.3015 0.0549,0.6441 0.0652,1.028 0.0068,0.1541 0.0102,0.3117 0.0102,0.4728 0,0.2501 -0.0068,0.5003 -0.0205,0.7571 -0.0172,0.4284 -0.0651,0.8704 -0.1405,1.3295 -0.7092,0.0514 -1.374,0.0959 -1.9976,0.1302 -0.6201,0.0343 -1.2198,0.0754 -1.7953,0.1268 -0.5757,0.0479 -1.1342,0.1302 -1.6755,0.2467 -0.5413,0.113 -1.0895,0.2947 -1.6378,0.5414 -0.1542,0.5927 -0.3015,1.2814 -0.4454,2.066 -0.1439,0.7846 -0.2502,1.5726 -0.3152,2.3676 -0.0411,0.4694 -0.0617,0.9217 -0.0617,1.3568 0,0.3049 0.0103,0.603 0.0308,0.8977 0.048,0.699 0.1884,1.2609 0.4146,1.6926 0.2433,0.1679 0.5928,0.2981 1.045,0.3906 0.4523,0.096 0.956,0.1644 1.511,0.2125 0.5551,0.0479 1.1273,0.0856 1.7235,0.1164 0.5962,0.0309 1.1547,0.0515 1.6788,0.0651 0.5209,0.0137 0.9801,0.0377 1.3741,0.0685 0.3974,0.0343 0.6784,0.0926 0.8531,0.1713 0.0068,0.0994 0.0103,0.2022 0.0103,0.3085 0,0.2706 -0.0137,0.5721 -0.0412,0.9011 -0.0307,0.4694 -0.0788,0.9182 -0.1404,1.3465 -0.0582,0.4283 -0.1405,0.8086 -0.2433,1.1478 -0.1062,0.3358 -0.2227,0.5619 -0.3563,0.675 -1.0587,-0.0138 -2.1688,-0.0411 -3.3338,-0.0856 -1.1649,-0.0412 -2.3334,-0.1234 -3.5018,-0.2365 -1.1717,-0.1164 -2.3264,-0.2877 -3.4639,-0.5173 -1.1376,-0.2296 -2.2134,-0.5346 -3.231,-0.9183 -0.2878,-0.394 -0.5106,-0.9765 -0.6682,-1.744 -0.1576,-0.7709 -0.2604,-1.6447 -0.3049,-2.6176zm17.2618 -9.933c0.0068,-1.0485 0.0308,-1.953 0.072,-2.7205 0.1198,-0.0651 0.346,-0.1233 0.6714,-0.1747 0.3256,-0.0515 0.7059,-0.0925 1.141,-0.1268 0.4318,-0.0308 0.8978,-0.0583 1.3911,-0.0788 0.4934,-0.0206 0.9663,-0.0309 1.4151,-0.0309 0.4522,0 0.86,0.0069 1.2233,0.0206 0.3631,0.0137 0.6407,0.0342 0.8325,0.0617 -0.0275,1.2198 -0.048,2.5149 -0.0651,3.8854 -0.0137,1.3671 -0.024,2.6862 -0.024,3.9506 0,1.2643 0,2.4121 0,3.4434 0,1.0314 0,1.8091 0,2.3299 0.5346,0.137 1.093,0.2158 1.6755,0.2433 0.2947,0.0137 0.5858,0.0205 0.8771,0.0205 0.2912,0 0.5859,-0.0068 0.8806,-0.0205 0.5859,-0.0275 1.1684,-0.0754 1.744,-0.1473 0.5756,-0.0686 1.1238,-0.1371 1.648,-0.2056 0.0788,0.8325 0.1268,1.6447 0.1405,2.4327 0,0.0479 0,0.0993 0,0.1508 0,0.7434 -0.0753,1.5041 -0.2227,2.2818 -0.3392,0.0377 -0.8086,0.0892 -1.4048,0.1474 -0.5962,0.0616 -1.2609,0.1199 -2.0009,0.1747 -0.7402,0.0582 -1.5316,0.1097 -2.371,0.1542 -0.8395,0.048 -1.6824,0.0857 -2.5219,0.1096 -0.8429,0.0275 -1.6583,0.0411 -2.4532,0.0411 -0.7949,0 -1.5282,-0.0273 -2.1996,-0.0788 -0.0138,-0.6646 -0.0377,-1.4732 -0.072,-2.4258 -0.0377,-0.9525 -0.072,-1.9907 -0.1063,-3.1076 -0.0307,-1.1205 -0.0788,-2.2854 -0.1438,-3.4915 -0.0618,-1.206 -0.1029,-2.3847 -0.1166,-3.5393 -0.0068,-0.7709 -0.0102,-1.5145 -0.0102,-2.234 0,-0.3597 0,-0.7161 0,-1.0656zm14.5241 16.1346c0.12,-0.9047 0.3734,-1.9839 0.7641,-3.238 0.3906,-1.2574 0.8052,-2.5903 1.2437,-4.0019 0.4385,-1.415 0.8772,-2.8301 1.3191,-4.252 0.4421,-1.422 0.8498,-2.7377 1.2232,-3.9472 -0.2056,-0.0103 -0.4008,-0.0308 -0.5825,-0.0582 -0.1507,-0.0411 -0.3015,-0.0788 -0.4487,-0.1165 -0.1474,-0.0377 -0.264,-0.0753 -0.3427,-0.1165 0.0685,-0.2604 0.1336,-0.5482 0.2021,-0.8634 0.0652,-0.3152 0.1371,-0.6305 0.216,-0.9525 0.0753,-0.3221 0.1541,-0.6271 0.2329,-0.9149 0.0822,-0.2878 0.1713,-0.5276 0.2741,-0.7229 0.4214,-0.0959 0.9696,-0.1884 1.6446,-0.2879 0.675,-0.0959 1.4186,-0.1679 2.2237,-0.2158 0.8052,-0.0514 1.6447,-0.0857 2.5115,-0.0993 0.3632,-0.0069 0.7195,-0.0103 1.069,-0.0103 0.49,0.0068 0.9765,0.0171 1.4631,0.0308 0.8188,0.0274 1.5829,0.072 2.2888,0.1336 0.7057,0.0651 1.2985,0.1645 1.7851,0.305 0.3289,1.5521 0.6441,3.094 0.9456,4.6187 0.3015,1.5281 0.6065,3.0597 0.908,4.5946 0.3049,1.535 0.6167,3.1077 0.932,4.7112 0.3186,1.607 0.5962,3.2825 0.8291,5.0299 -0.5242,0.1061 -1.069,0.1884 -1.6343,0.2467 -0.5654,0.0548 -1.1273,0.1027 -1.6892,0.1336 -0.5585,0.0343 -1.0998,0.0548 -1.6206,0.0616 -0.1748,0 -0.3462,0 -0.5071,0 -0.3255,0 -0.6236,-0.0034 -0.891,-0.0102 -0.1095,-0.3392 -0.2054,-0.6407 -0.2911,-0.9011 -0.0822,-0.2638 -0.1576,-0.5071 -0.2228,-0.7332 -0.065,-0.2296 -0.1232,-0.4764 -0.1747,-0.7402 -0.0514,-0.2672 -0.113,-0.5721 -0.1816,-0.9183 -0.4762,-0.065 -1.0244,-0.1061 -1.6412,-0.1198 -0.4111,-0.0068 -0.8223,-0.0103 -1.2335,-0.0103 -0.2056,0 -0.4078,0 -0.6064,0 -0.61,0.0069 -1.1889,0.0377 -1.7372,0.089 -0.5482,0.0549 -0.9971,0.1268 -1.3499,0.2126 -0.1302,0.3015 -0.2502,0.5618 -0.3529,0.7811 -0.1029,0.2193 -0.1885,0.442 -0.257,0.675 -0.072,0.2295 -0.1371,0.4626 -0.1987,0.7023 -0.0618,0.2365 -0.1337,0.5209 -0.2125,0.8463 -0.3906,0.0926 -0.8497,0.1577 -1.3808,0.1988 -0.531,0.0377 -1.0724,0.0582 -1.6241,0.0582 -0.5516,0 -1.0827,-0.0171 -1.5932,-0.0479 -0.5106,-0.0342 -0.9457,-0.0857 -1.302,-0.1507zm8.4322 -8.141c0.2329,0.0514 0.5448,0.0925 0.9388,0.1165 0.2638,0.0206 0.5276,0.0308 0.7983,0.0308 0.1439,0 0.2809,-0.0034 0.4111,-0.0102 0.4078,-0.0137 0.7847,-0.0343 1.1376,-0.0618 0.3494,-0.0239 0.5893,-0.0582 0.7229,-0.0993 -0.0411,-0.4557 -0.1165,-0.9662 -0.2261,-1.5247 -0.1131,-0.5619 -0.2227,-1.1272 -0.3358,-1.696 -0.1131,-0.5653 -0.2192,-1.1033 -0.3187,-1.6104 -0.0993,-0.5037 -0.2158,-0.9251 -0.346,-1.2609 -0.1439,-0.3734 -0.3049,-0.5619 -0.4796,-0.5619 -0.0207,0 -0.0343,0.0034 -0.048,0.0103 -0.2022,0.0411 -0.3701,0.2296 -0.5071,0.5654 -0.0377,0.0822 -0.1063,0.2774 -0.2022,0.5893 -0.0993,0.3118 -0.209,0.6715 -0.3358,1.0861 -0.1267,0.4112 -0.2603,0.8565 -0.4042,1.3329 -0.1474,0.4796 -0.2844,0.9285 -0.4112,1.35 -0.1302,0.4213 -0.2261,0.7914 -0.2947,1.1066 -0.0651,0.3118 -0.0993,0.5242 -0.0993,0.6373zm13.1845 -0.4489c-0.0103,-0.3117 -0.0172,-0.627 -0.0172,-0.9422 0,-1.2506 0.0994,-2.508 0.2946,-3.7655 0.2433,-1.5693 0.6477,-3.0529 1.2096,-4.4508 0.9456,-0.3871 1.9289,-0.7093 2.9535,-0.9731 1.0279,-0.2638 2.0626,-0.4796 3.111,-0.6441 1.0485,-0.1645 2.1004,-0.2742 3.1522,-0.3289 0.6031,-0.0343 1.1959,-0.0514 1.7783,-0.0514 0.6133,0 1.2232,0.0102 1.8262,0.0307 0.281,0.6614 0.4455,1.3946 0.5003,2.1999 0.0445,0.5995 0.0685,1.1751 0.0685,1.7199 0,0.185 -0.0034,0.3632 -0.0102,0.538 -1.2678,0.1815 -2.5389,0.322 -3.8169,0.4214 -1.2781,0.0993 -2.5493,0.2672 -3.8171,0.5003 -0.2363,0.394 -0.3871,0.8222 -0.4556,1.2814 -0.0651,0.4626 -0.1062,0.9285 -0.1199,1.4013 1.2575,0.2468 2.5149,0.4763 3.7724,0.6819 1.2539,0.2056 2.5217,0.4283 3.7998,0.6612 0.2466,0.5927 0.4077,1.237 0.4796,1.9325 0.0412,0.3803 0.0617,0.764 0.0617,1.1512 0,0.3153 -0.0137,0.627 -0.0412,0.9422 -0.0582,0.7025 -0.1849,1.3843 -0.3803,2.049 -0.1952,0.6648 -0.4351,1.2678 -0.7229,1.816 -0.9045,0.5071 -1.8468,0.9422 -2.8198,1.3019 -0.9765,0.3598 -1.9634,0.6682 -2.9638,0.9217 -1.0039,0.2536 -2.0558,0.4626 -3.1625,0.6236 -1.1067,0.1611 -2.186,0.3186 -3.2413,0.4729 -0.1302,-0.0925 -0.2501,-0.3563 -0.3632,-0.7916 -0.1096,-0.4317 -0.1988,-0.9011 -0.2638,-1.4047 -0.0652,-0.5037 -0.12,-0.9868 -0.1611,-1.4528 -0.0308,-0.3015 -0.0411,-0.5448 -0.0343,-0.7332 0,-0.1062 0.0035,-0.1953 0.0104,-0.2673 0.6303,-0.0273 1.2883,-0.0959 1.9701,-0.2021 0.6852,-0.1096 1.3602,-0.2159 2.025,-0.3221 0.6647,-0.1027 1.1889,-0.2295 1.5726,-0.3803 0.3838,-0.1508 0.675,-0.3015 0.8772,-0.4455 0.065,-0.2089 0.113,-0.4728 0.1404,-0.7948 0.0137,-0.1576 0.0205,-0.3153 0.0205,-0.4694 0,-0.1542 -0.0068,-0.3015 -0.017,-0.4421 -0.1577,-0.1199 -0.4112,-0.2261 -0.7641,-0.3151 -0.3529,-0.0891 -0.7572,-0.1748 -1.2164,-0.2502 -0.459,-0.0788 -0.949,-0.1542 -1.4664,-0.2262 -0.5173,-0.0718 -1.0142,-0.1541 -1.4904,-0.2466 -0.4764,-0.0891 -0.9183,-0.1919 -1.3192,-0.3084 -0.4009,-0.1164 -0.7196,-0.2638 -0.9593,-0.4386zm16.8026 -0.7777c0.0068,-1.3911 0.0206,-2.7308 0.0411,-4.0191 0.0206,-1.2882 0.0411,-2.4669 0.0686,-3.5394 0.0274,-1.069 0.0479,-1.9119 0.0616,-2.5286 0.2502,-0.0788 0.5723,-0.1474 0.9663,-0.2021 0.3941,-0.0514 0.8189,-0.096 1.2745,-0.1337 0.4558,-0.0377 0.9183,-0.0617 1.3911,-0.0754 0.2365,-0.0068 0.4626,-0.0102 0.6819,-0.0102 0.2192,0 0.4317,0.0034 0.6338,0.0102 0.3906,0.0137 0.723,0.0377 1.0006,0.0754 0.274,0.0377 0.4419,0.096 0.4933,0.1748 -0.1541,1.0244 -0.2295,2.1038 -0.2295,3.2446 0.0068,0.0241 0.0102,0.0481 0.0102,0.0686 0,1.165 0,2.2649 0,3.303 0.3015,0.0925 0.6784,0.1404 1.1342,0.1404 0.0206,0 0.0342,0 0.0479,0 0.4694,0 0.9458,-0.0307 1.4288,-0.089 0.4865,-0.0617 0.9286,-0.1302 1.326,-0.2125 0.3975,-0.0788 0.6716,-0.1473 0.8258,-0.1986 0.0684,-0.3153 0.1027,-0.7333 0.1027,-1.2575 0,-0.5208 -0.0102,-1.0724 -0.0308,-1.6549 -0.0205,-0.5825 -0.0376,-1.1684 -0.0514,-1.7578 -0.0069,-0.1952 -0.0103,-0.3837 -0.0103,-0.5721 0,-0.3667 0.0103,-0.7059 0.0309,-1.0142 0.2261,-0.1063 0.6167,-0.2022 1.1683,-0.2844 0.5551,-0.0857 1.1444,-0.1473 1.7749,-0.185 0.627,-0.0411 1.2232,-0.0618 1.7919,-0.0618 0.5654,0 0.9423,0.0275 1.1273,0.0789 0.0686,0.8497 0.1131,1.8639 0.1404,3.0426 0.0275,0.9628 0.0412,1.9804 0.0412,3.0528 0,0.2329 0,0.4694 0,0.7127 -0.0069,1.3362 -0.024,2.693 -0.0514,4.0636 -0.0275,1.3705 -0.048,2.6691 -0.0652,3.8889 -0.0136,1.2231 -0.0307,2.3059 -0.0445,3.2585 -0.0137,0.949 -0.0273,1.6788 -0.041,2.1893 -0.2947,0.0514 -0.7333,0.0891 -1.3192,0.1097 -0.5824,0.0205 -1.1855,0.0308 -1.8125,0.0308 -0.6236,0 -1.1993,-0.0069 -1.7303,-0.0206 -0.5277,-0.0136 -0.8806,-0.0274 -1.0587,-0.0411 -0.0206,-0.3221 -0.0309,-0.6681 -0.0309,-1.045 0,-0.185 0.0034,-0.3838 0.0103,-0.5928 0.0137,-0.6064 0.0274,-1.2369 0.0479,-1.8844 0.0138,-0.3906 0.0206,-0.7779 0.0206,-1.165 0,-0.2536 -0.0034,-0.5105 -0.0102,-0.7641 -0.0138,-0.6269 -0.0686,-1.1923 -0.1679,-1.696 -0.1885,-0.0068 -0.5105,-0.0308 -0.9628,-0.0685 -0.3838,-0.0343 -0.7778,-0.0513 -1.1855,-0.0513 -0.0652,0 -0.1405,0 -0.2193,0 -0.4832,0.0068 -0.9286,0.0513 -1.3363,0.137 -0.4077,0.0822 -0.6647,0.2329 -0.7709,0.4556 -0.0651,1.1239 -0.12,2.2408 -0.1611,3.3509 -0.0137,0.49 -0.0205,0.9766 -0.0205,1.4665 0,0.6237 0.0137,1.2473 0.0411,1.8776 -0.4591,0.0926 -0.9422,0.1713 -1.4459,0.2365 -0.5071,0.0616 -1.021,0.1027 -1.5487,0.1234 -0.3118,0.0136 -0.6201,0.0205 -0.932,0.0205 -0.209,0 -0.418,-0.0035 -0.627,-0.0103 -0.5174,-0.0137 -1.0176,-0.048 -1.4973,-0.0993 -0.0788,-0.5757 -0.1474,-1.3809 -0.2022,-2.4087 -0.0445,-1.0451 -0.0788,-2.2032 -0.0993,-3.4743 -0.0138,-0.956 -0.0206,-1.9428 -0.0206,-2.9604 0,-0.3426 0,-0.6852 0,-1.0347z"/>
  <path class="fil2" d="M33.8606 15.9486l4.6968 11.9302c2.9001,0.6772 5.8,1.3544 8.6998,2.0317 0.8354,-3.4954 1.6704,-6.9908 2.5058,-10.4862 -1.0209,3.2112 -2.0416,6.4227 -3.0625,9.6342 -1.6006,-0.4369 -3.2014,-0.8739 -4.8022,-1.3109 0.3479,-2.4686 0.6959,-4.9371 1.0438,-7.4058 0.3972,-0.7703 0.7529,-1.5761 1.8096,-1.7695 1.74,0.022 3.48,0.0436 5.22,0.0656 0.4199,0.0774 0.7386,0.3182 0.8351,0.9175 -0.3943,6.4883 -0.7887,10.3523 -1.183,16.8406 -0.5106,0.5025 -1.0209,1.005 -1.5312,1.5075 0.4175,0.3714 0.835,0.7428 1.2528,1.114l-0.3522 7.7908c-6.8183,-1.1538 -14.9107,-1.8225 -23.5898,-1.8225 -8.6791,0 -16.7712,0.6687 -23.5898,1.8225l-0.352 -7.7908c0.4175,-0.3712 0.8351,-0.7426 1.2526,-1.114 -0.5103,-0.5025 -1.0206,-1.005 -1.531,-1.5075 -0.3943,-6.4883 -0.7889,-10.3523 -1.1832,-16.8406 0.0912,-0.4624 0.331,-0.8008 0.8353,-0.9175 1.7397,-0.022 3.4797,-0.0436 5.2198,-0.0656 0.866,0.0951 1.544,0.5434 1.8095,1.7695 0.348,2.4687 0.696,4.9372 1.0439,7.4058 -1.6006,0.437 -3.2014,0.874 -4.8022,1.3109 -1.0207,-3.2115 -2.0416,-6.423 -3.0622,-9.6342 0.835,3.4954 1.6701,6.9908 2.5055,10.4862 2.8998,-0.6773 5.7999,-1.3545 8.6997,-2.0317 1.7632,-4.4785 3.5264,-8.957 5.2894,-13.4355 5.2629,-0.7456 8.8417,-0.8331 13.7082,-0.2627 0.2802,0.0325 0.5648,0.0676 0.854,0.1046 0.3803,0.0489 0.7691,0.1016 1.1672,0.1581l0.5925 1.5053z"/>
  <path class="fil3" d="M25.4035 44.9859c-8.6792,0 -16.7714,0.6687 -23.5898,1.8223l-0.3521 -7.7906c0.4175,-0.3713 0.8351,-0.7427 1.2527,-1.1141 -0.5103,-0.5025 -1.0207,-1.005 -1.5311,-1.5075 -0.3944,-6.4883 -0.7888,-10.3523 -1.1832,-16.8406 0.0911,-0.4625 0.3309,-0.8009 0.8352,-0.9176 1.7399,-0.0218 3.4799,-0.0436 5.2199,-0.0655 0.8659,0.095 1.5441,0.5433 1.8095,1.7696 0.348,2.4685 0.696,4.9371 1.044,7.4058 -1.6008,0.437 -3.2015,0.8738 -4.8023,1.3108 -1.0207,-3.2114 -2.0415,-6.4229 -3.0623,-9.6343 0.8351,3.4955 1.6703,6.9909 2.5055,10.4862 2.9,-0.6771 5.7999,-1.3544 8.6998,-2.0317 1.7632,-4.4784 3.5264,-8.9568 5.2895,-13.4354 2.9821,-0.4225 5.4234,-0.6336 7.8647,-0.6336l0 31.1762z"/>
  <path class="fil4" d="M13.6211 48.7645c-0.06,0.1122 0.5203,0.6372 1.3458,1.0794 0.8254,0.4427 1.5836,0.6356 1.6441,0.5229l2.3807 -4.4417c-1.337,0.0481 -2.6548,0.1117 -3.9509,0.1903l-1.4197 2.6491zm-0.0641 3.7098l1.1497 0.193 1.4725 -1.6747c-0.0926,0.016 -0.2157,0.0067 -0.421,-0.0393 -0.5762,0.8228 -1.261,1.3188 -2.2012,1.521zm-0.0233 0.1511l-0.3827 1.1905c-0.0833,0.2581 -0.224,0.5322 0.9433,0.3688l4.7712 -0.6677 -6.5162 1.2863 1.1844 -2.1779zm-3.9421 7.25l1.9214 -4.1329c0.3046,-0.6972 0.2824,-1.3292 0.0559,-2.0564l-1.5314 -4.376 2.2953 5.4487 -2.7412 5.1166zm-0.4991 0.9284l10.2395 -7.3639 -4.4251 -0.7395 1.6653 -1.8945c-0.2725,0.0475 -1.1047,-0.1552 -1.8262,-0.5498 -0.7282,-0.3822 -1.3576,-0.963 -1.4693,-1.2165l-0.6548 2.436 -3.0665 -3.2754 -0.4629 12.6036z"/>
  <polygon class="fil5" points="24.2117,36.1853 25.673,37.1704 24.0089,36.6414 23.8849,36.856 23.8889,37.179 23.5221,36.6021 23.2291,36.9266 23.1136,36.443 22.7341,36.4634 22.242,36.8489 22.7782,35.9717 22.2659,36.2559 21.9255,36.3209 21.3572,36.7955 21.0047,37.2433 21.2644,36.6286 21.7826,36.1346 21.6,35.8588 22.0032,35.4773 21.4233,35.7451 21.5244,35.3517 21.4079,35.2423 20.8259,35.9417 21.1358,34.9934 20.9066,35.0391 20.8113,35.3316 20.7256,35.032 20.1605,35.1621 21.0738,34.6909 19.8845,33.6896 21.3738,34.2983 22.2664,32.6332 32.1361,14.2185 33.3033,14.3766 33.8958,15.8819 34.4031,17.1705 "/>
  <path class="fil4" d="M41.3677 4.1846c0.5343,-0.9966 -2.4768,-2.5616 -3.0106,-1.565l-0.6098 1.1373 0.8457 2.0093 2.1805 -0.4732 0.5942 -1.1084zm-0.9377 0.2302l-0.4173 0.7634 0.5968 -0.1293 0.5064 -0.9537c0.2068,-0.389 -0.2814,-0.8881 -0.8695,-1.1875 0.6155,0.631 0.6217,0.7049 0.1836,1.5071zm-6.993 10.2638l1.0592 -2.013c1.5242,-2.8849 1.8361,-3.1481 3.1374,-5.2733l-4.8648 9.1715 1.2335 -1.3954 2.7587 -0.5767c2.917,-0.6325 3.2729,-0.4774 4.5545,-2.8979l-1.3152 -0.0403 1.4703 -0.256c0.029,-0.0559 0.058,-0.1123 0.088,-0.1702l0.0822 -0.1603 -2.9754 0.182 3.0938 -0.4137 0.8741 -1.7052 -1.6442 0.0672 1.7606 -0.2937 0.3553 -0.6931 -0.2803 -0.1045 -0.1226 -0.1603 0.2301 -0.0176 0.1904 -0.2684 -1.413 0.0408 1.5154 -0.2451 -3.0375 0.1634 3.5857 -0.7121 1.1239 -2.1924 -6.4919 1.4083 -2.5761 -6.1226 -0.9424 1.8045 0.1955 0.4779 0.7246 -1.3308 0.2462 0.5855 -0.7525 1.279 0.8518 2.0812 -1.0096 -1.8138 -0.8037 1.3659 0.7432 1.1622 -0.7292 -0.751 1.4688 2.4003 -1.8117 -2.2524 -0.8544 1.4513 0.9759 1.9198 -1.1389 -1.6426 -0.3077 0.5224 0.5363 0.8704 -0.6221 -0.7246 -0.4293 0.7298c-0.3807,0.962 -0.3383,1.4761 0.0305,2.4308l1.2671 3.428 -1.4874 -3.5268c-0.3683,-0.9547 -0.4112,-1.4688 -0.0305,-2.4308l0.4623 -0.8487 -0.2089 -0.2436 -0.5255 1.0059c-0.4117,1.035 -0.3584,1.6054 0.0269,2.6036l1.7326 4.1252zm1.4549 -12.0466l-0.226 -0.4055 -0.7862 1.5056 0.2235 0.3486 0.7887 -1.4487zm-1.1275 2.0709l-0.2374 -0.2953 -0.7163 1.3726 0.1774 0.3491 0.7763 -1.4264zm-0.9594 1.7626l-0.2012 -0.2896 -0.2689 0.5151 0.1841 0.2994 0.286 -0.5249z"/>
 </g>
</svg>
