<?xml version="1.0" encoding="UTF-8"?>
<!DOCTYPE svg PUBLIC "-//W3C//DTD SVG 1.1//EN" "http://www.w3.org/Graphics/SVG/1.1/DTD/svg11.dtd">
<!-- Creator: CorelDRAW -->
<svg xmlns="http://www.w3.org/2000/svg" xml:space="preserve" width="147.081mm" height="147.081mm" style="shape-rendering:geometricPrecision; text-rendering:geometricPrecision; image-rendering:optimizeQuality; fill-rule:evenodd; clip-rule:evenodd"
viewBox="0 0 147.081 147.081"
 xmlns:xlink="http://www.w3.org/1999/xlink">
 <defs>
  <style type="text/css">
   <![CDATA[
    .fil0 {fill:black}
    .fil1 {fill:#BF0000}
    .fil2 {fill:#D90709}
    .fil3 {fill:white}
   ]]>
  </style>
 </defs>
 <g id="Layer_x0020_1">
  <metadata id="CorelCorpID_0Corel-Layer"/>
  <path class="fil0" d="M29.1224 0l88.8359 0c16.0174,0 29.1223,13.1049 29.1223,29.1223l0 88.8359c0,16.0175 -13.1049,29.1224 -29.1223,29.1224l-88.8359 0c-16.0175,0 -29.1224,-13.1049 -29.1224,-29.1224l0 -88.8359c0,-16.0174 13.1049,-29.1223 29.1224,-29.1223z"/>
  <path class="fil1" d="M89.1216 46.912l8.6533 21.9797c5.343,1.2478 10.6856,2.4955 16.0281,3.7432 1.539,-6.4398 3.0775,-12.8795 4.6165,-19.3193 -1.8809,5.9162 -3.7613,11.833 -5.6422,17.7497 -2.9488,-0.8051 -5.8981,-1.6101 -8.8474,-2.4151 0.641,-4.5482 1.2821,-9.096 1.9231,-13.6442 0.7317,-1.4191 1.3871,-2.9038 3.334,-3.2601 3.2057,0.0404 6.4114,0.0804 9.6172,0.1208 0.7734,0.1426 1.3606,0.5862 1.5385,1.6904 -0.7265,11.9538 -1.4531,19.0727 -2.1796,31.0265 -0.9407,0.9258 -1.8809,1.8516 -2.8211,2.7774 0.7693,0.6843 1.5385,1.3685 2.3083,2.0523l-0.649 14.3535c-12.5618,-2.1257 -27.4709,-3.3576 -43.461,-3.3576 -15.9901,0 -30.8987,1.2319 -43.461,3.3576l-0.6485 -14.3535c0.7693,-0.6838 1.5385,-1.368 2.3078,-2.0523 -0.9402,-0.9258 -1.8804,-1.8516 -2.8206,-2.7774 -0.7266,-11.9538 -1.4536,-19.0727 -2.1801,-31.0265 0.1682,-0.8519 0.6099,-1.4753 1.539,-1.6904 3.2053,-0.0404 6.411,-0.0804 9.6167,-0.1208 1.5957,0.1751 2.8448,1.0011 3.334,3.2601 0.641,4.5482 1.2821,9.096 1.9231,13.6442 -2.9488,0.805 -5.8981,1.61 -8.8474,2.4151 -1.8805,-5.9167 -3.7613,-11.8335 -5.6418,-17.7497 1.5386,6.4398 3.0771,12.8795 4.6161,19.3193 5.3425,-1.2477 10.6856,-2.4954 16.0281,-3.7432 3.2485,-8.251 6.497,-16.5019 9.745,-24.7529 9.6961,-1.3737 16.2897,-1.5348 25.2556,-0.4841 0.5161,0.0599 1.0405,0.1245 1.5733,0.1928 0.7005,0.0901 1.4168,0.1872 2.1503,0.2913l1.0917 2.7732z"/>
  <path class="fil2" d="M73.5405 100.409c-15.9903,0 -30.899,1.2319 -43.4611,3.3573l-0.6485 -14.3532c0.7692,-0.6841 1.5385,-1.3683 2.3079,-2.0526 -0.9402,-0.9258 -1.8806,-1.8515 -2.8209,-2.7773 -0.7267,-11.9538 -1.4533,-19.0727 -2.1798,-31.0265 0.1678,-0.8521 0.6095,-1.4755 1.5387,-1.6905 3.2055,-0.0402 6.4112,-0.0805 9.6169,-0.1207 1.5954,0.175 2.8449,1.001 3.3338,3.2602 0.6411,4.5479 1.2823,9.096 1.9234,13.6442 -2.9492,0.805 -5.8983,1.6099 -8.8475,2.4149 -1.8807,-5.9165 -3.7613,-11.8332 -5.6419,-17.7497 1.5386,6.4399 3.0773,12.8797 4.616,19.3193 5.3428,-1.2476 10.6856,-2.4952 16.0282,-3.7431 3.2485,-8.2509 6.4968,-16.5017 9.7452,-24.7529 5.494,-0.7784 9.9919,-1.1674 14.4896,-1.1674l0 57.438z"/>
  <path class="fil3" d="M51.8333 107.371c-0.1111,0.2071 0.9583,1.1738 2.4792,1.9891 1.5208,0.8152 2.9181,1.1706 3.0292,0.9634l4.3861 -8.1831c-2.463,0.0882 -4.8916,0.2048 -7.2792,0.3507l-2.6153 4.8799z"/>
  <path class="fil3" d="M43.4898 129.552l18.8646 -13.5671 -8.1525 -1.3629 3.0682 -3.49c-0.5021,0.0873 -2.0356,-0.2862 -3.3646,-1.0127 -1.342,-0.7047 -2.5015,-1.775 -2.7068,-2.2414l-1.2068 4.4874 -5.6497 -6.0343 -0.8524 23.221z"/>
  <path class="fil3" d="M43.4898 129.552l0.8524 -23.221 5.6497 6.0343 1.2068 -4.4874c0.2053,0.4664 1.3648,1.5367 2.7068,2.2414l-10.4157 19.4327z"/>
  <path class="fil0" d="M51.7148 114.206l2.1187 0.3549 2.7124 -3.085c-0.1709,0.0298 -0.3972,0.0126 -0.7758,-0.0724 -1.0614,1.5157 -2.3231,2.4299 -4.0553,2.8025z"/>
  <path class="fil0" d="M51.6721 114.484l-0.7052 2.1935c-0.1533,0.4753 -0.4125,0.9802 1.7378,0.6792l8.7903 -1.2301 -12.0053 2.37 2.1824 -4.0126z"/>
  <path class="fil0" d="M44.4096 127.841l3.5397 -7.6145c0.5612,-1.2845 0.5198,-2.4481 0.1027,-3.7883l-2.8211 -8.0619 4.2286 10.038 -5.0499 9.4267z"/>
  <polygon class="fil0" points="71.2799,84.3183 73.9723,86.1333 70.9064,85.1587 70.6779,85.554 70.6853,86.1491 70.0094,85.0862 69.4696,85.6841 69.2569,84.7931 68.5577,84.8307 67.651,85.541 68.639,83.9249 67.6951,84.4484 67.068,84.5683 66.0209,85.4425 65.3715,86.2675 65.85,85.135 66.8046,84.225 66.4683,83.7168 67.2111,83.0139 66.1427,83.5073 66.3289,82.7826 66.1143,82.581 65.0422,83.8696 65.6131,82.1225 65.1908,82.2066 65.0152,82.7454 64.8573,82.1936 63.8163,82.4333 65.4988,81.5651 63.3076,79.7204 66.0516,80.8418 67.696,77.774 85.8796,43.8475 88.0299,44.1388 89.1216,46.912 90.0562,49.2862 "/>
  <path class="fil3" d="M88.3416 44.572l1.9512 -3.7088c2.8081,-5.3148 3.3822,-5.7992 5.7798,-9.7145l-8.9621 16.8966 2.2723 -2.5706 5.0829 -1.062c5.3736,-1.1657 6.0294,-0.88 8.391,-5.3395l-2.4231 -0.0748 2.7088 -0.4712c0.053,-0.1026 0.1066,-0.2064 0.1614,-0.3134l0.1515 -0.2957 -5.4819 0.3355 5.7004 -0.7617 1.6106 -3.1421 -3.0293 0.1242 3.2429 -0.5409 0.6549 -1.2779 -0.5164 -0.1921 -0.2258 -0.2958 0.4241 -0.0321 0.3504 -0.4941 -2.6027 0.0751 2.792 -0.4514 -5.5964 0.3008 6.6058 -1.3121 2.0705 -4.0393 -11.9597 2.5946 -4.747 -11.2799 -1.7362 3.3248 0.3604 0.8805 1.3351 -2.4523 0.4541 1.0792 -1.3868 2.3562 1.5695 3.8343 -1.8595 -3.3415 -1.4815 2.5169 1.369 2.1406 -1.3434 -1.3832 2.7065 4.4217 -3.3377 -4.1501 -1.574 2.6741 1.7972 3.537 -2.0977 -3.0265 -0.5669 0.9632 0.9881 1.6032 -1.1462 -1.3347 -0.7914 1.3446c-0.7012,1.7717 -0.6223,2.7189 0.0564,4.4781l2.3348 6.3155 -2.7401 -6.4976c-0.6787,-1.7592 -0.7576,-2.7064 -0.0564,-4.478l0.8516 -1.5644 -0.3853 -0.4486 -0.9681 1.8539c-0.7577,1.906 -0.6605,2.9578 0.0497,4.7967l3.1927 7.5995zm2.6798 -22.1937l-0.4158 -0.7472 -1.4484 2.7737 0.411 0.6426 1.4532 -2.6691zm-2.0769 3.8148l-0.4373 -0.5437 -1.3203 2.5284 0.327 0.6434 1.4306 -2.6281zm-1.7681 3.2479l-0.3702 -0.5341 -0.4959 0.9497 0.3398 0.5512 0.5263 -0.9668z"/>
  <path class="fil3" d="M102.952 25.2389c0.9843,-1.8368 -4.5627,-4.7197 -5.5465,-2.8834l-1.1228 2.0951 1.5576 3.7013 4.0177 -0.8719 1.094 -2.0411z"/>
  <path class="fil0" d="M101.224 25.6628l-0.7684 1.4063 1.1 -0.2387 0.9328 -1.7572c0.3802,-0.7162 -0.5189,-1.6351 -1.6022,-2.1876 1.1344,1.1626 1.1454,1.2987 0.3378,2.7772z"/>
 </g>
</svg>
