<?xml version="1.0" encoding="UTF-8"?>
<!DOCTYPE svg PUBLIC "-//W3C//DTD SVG 1.1//EN" "http://www.w3.org/Graphics/SVG/1.1/DTD/svg11.dtd">
<!-- Creator: CorelDRAW -->
<svg xmlns="http://www.w3.org/2000/svg" xml:space="preserve" width="61.7652mm" height="73.9184mm" style="shape-rendering:geometricPrecision; text-rendering:geometricPrecision; image-rendering:optimizeQuality; fill-rule:evenodd; clip-rule:evenodd"
viewBox="0 0 61.7652 73.9184"
 xmlns:xlink="http://www.w3.org/1999/xlink">
 <defs>
  <style type="text/css">
   <![CDATA[
    .fil1 {fill:black}
    .fil0 {fill:white}
   ]]>
  </style>
 </defs>
 <g id="Layer_x0020_1">
  <metadata id="CorelCorpID_0Corel-Layer"/>
  <path class="fil0" d="M41.1639 19.3885l5.7099 14.5033c3.5256,0.8234 7.0509,1.6467 10.5762,2.47 1.0155,-4.2493 2.0307,-8.4986 3.0462,-12.7479 -1.2411,3.9038 -2.4819,7.808 -3.723,11.7122 -1.9458,-0.5312 -3.8919,-1.0625 -5.838,-1.5937 0.423,-3.0011 0.846,-6.0019 1.269,-9.0031 0.4828,-0.9364 0.9153,-1.9161 2.1999,-2.1512 2.1153,0.0267 4.2306,0.0531 6.3459,0.0797 0.5104,0.0941 0.8978,0.3869 1.0152,1.1155 -0.4794,7.8877 -0.9588,12.5851 -1.4382,20.4728 -0.6207,0.6109 -1.2411,1.2218 -1.8615,1.8327 0.5076,0.4515 1.0152,0.903 1.5231,1.3542l-0.4282 9.4712c-8.2889,-1.4026 -18.1267,-2.2155 -28.6778,-2.2155 -10.5511,0 -20.3886,0.8129 -28.6779,2.2155l-0.4279 -9.4712c0.5076,-0.4512 1.0152,-0.9027 1.5228,-1.3542 -0.6204,-0.6109 -1.2408,-1.2218 -1.8612,-1.8327 -0.4794,-7.8877 -0.9591,-12.5851 -1.4385,-20.4728 0.111,-0.5622 0.4025,-0.9736 1.0155,-1.1155 2.115,-0.0266 4.2303,-0.053 6.3457,-0.0797 1.0529,0.1156 1.8771,0.6606 2.1999,2.1512 0.423,3.0012 0.846,6.002 1.269,9.0031 -1.9458,0.5312 -3.8919,1.0625 -5.8381,1.5937 -1.2408,-3.9042 -2.4819,-7.8084 -3.7227,-11.7122 1.0152,4.2493 2.0304,8.4986 3.0459,12.7479 3.5254,-0.8233 7.051,-1.6466 10.5763,-2.47 2.1435,-5.4444 4.287,-10.8888 6.4302,-16.3333 6.398,-0.9063 10.7488,-1.0127 16.6649,-0.3194 0.3406,0.0396 0.6866,0.0822 1.0382,0.1272 0.4623,0.0595 0.9349,0.1236 1.4189,0.1922l0.7203 1.83z"/>
  <path class="fil0" d="M16.559 59.2824c-0.0729,0.1364 0.6325,0.7746 1.636,1.3122 1.0035,0.5382 1.9253,0.7727 1.9988,0.6356l2.8942 -5.3997c-1.6254,0.0585 -3.2274,0.1358 -4.8031,0.2314l-1.7259 3.2205zm-0.0779 4.51l1.3977 0.2345 1.79 -2.0359c-0.1125,0.0195 -0.2622,0.0082 -0.5118,-0.0478 -0.7004,1.0004 -1.5329,1.6033 -2.6759,1.8492zm-0.0283 0.1836l-0.4653 1.4474c-0.1012,0.3137 -0.2723,0.647 1.1468,0.4483l5.8003 -0.8117 -7.9217 1.5637 1.4399 -2.6477zm-4.7924 8.8138l2.3358 -5.0243c0.3704,-0.8476 0.3433,-1.6159 0.0679,-2.4999l-1.8617 -5.3199 2.7904 6.6239 -3.3324 6.2202zm-0.6067 1.1286l12.448 -8.9521 -5.3796 -0.8991 2.0246 -2.3032c-0.3314,0.0579 -1.343,-0.1886 -2.2201,-0.6683 -0.8853,-0.4647 -1.6505,-1.1708 -1.7863,-1.4788l-0.796 2.9614 -3.7279 -3.9819 -0.5627 15.322z"/>
  <polygon class="fil1" points="29.4338,43.99 31.2104,45.1876 29.1874,44.5445 29.0366,44.8053 29.0415,45.198 28.5955,44.4967 28.2393,44.8912 28.0989,44.3033 27.6376,44.3281 27.0393,44.7968 27.6912,43.7304 27.0684,44.0758 26.6546,44.1549 25.9637,44.7318 25.5352,45.2762 25.8509,44.5289 26.4808,43.9284 26.2589,43.5931 26.749,43.1293 26.044,43.4548 26.1669,42.9766 26.0253,42.8436 25.3178,43.6939 25.6946,42.5411 25.4159,42.5966 25.3001,42.9521 25.1958,42.588 24.5089,42.7461 25.6192,42.1732 24.1733,40.9561 25.9839,41.696 27.069,39.6717 39.0675,17.2852 40.4864,17.4774 41.2067,19.3074 41.8234,20.874 "/>
  <path class="fil0" d="M50.2902 5.0872c0.6495,-1.2116 -3.0111,-3.1142 -3.6599,-1.9026l-0.7413 1.3826 1.028 2.4427 2.6508 -0.5753 0.7224 -1.3474zm-1.1399 0.2798l-0.5074 0.928 0.7256 -0.1572 0.6155 -1.1594c0.2515,-0.4728 -0.342,-1.0795 -1.0569,-1.4436 0.7482,0.7671 0.7558,0.857 0.2232,1.8322zm-8.5013 12.4776l1.2877 -2.4471c1.8529,-3.5072 2.232,-3.8273 3.814,-6.4108l-5.9141 11.1496 1.4996 -1.6963 3.3538 -0.7011c3.5461,-0.7689 3.9787,-0.5803 5.5367,-3.5229l-1.5989 -0.049 1.7876 -0.3112c0.0352,-0.0679 0.0704,-0.1365 0.1068,-0.2069l0.1 -0.1949 -3.6172 0.2213 3.7612 -0.503 1.0626 -2.073 -1.9988 0.0818 2.1403 -0.3572 0.4319 -0.8425 -0.3408 -0.127 -0.149 -0.1949 0.2798 -0.0214 0.2314 -0.3263 -1.7178 0.0496 1.8423 -0.298 -3.6927 0.1987 4.3592 -0.8658 1.3662 -2.6653 -7.8921 1.7121 -3.1318 -7.4431 -1.1455 2.1937 0.2376 0.581 0.8809 -1.6178 0.2993 0.7117 -0.9148 1.5549 1.0355 2.5301 -1.2273 -2.205 -0.9771 1.6605 0.9035 1.4128 -0.8865 -0.9129 1.7856 2.918 -2.2025 -2.7382 -1.0387 1.7643 1.1865 2.3339 -1.3845 -1.9969 -0.3741 0.635 0.652 1.0582 -0.7564 -0.8809 -0.5219 0.8872c-0.4627,1.1695 -0.4112,1.7945 0.0371,2.9551l1.5405 4.1674 -1.8083 -4.2875c-0.4477,-1.1606 -0.4999,-1.7856 -0.0371,-2.9551l0.5621 -1.0318 -0.254 -0.2961 -0.6388 1.2229c-0.5005,1.2581 -0.4358,1.9516 0.0327,3.1651l2.1063 5.015zm1.7686 -14.6449l-0.2747 -0.4929 -0.9557 1.8302 0.2716 0.4238 0.9588 -1.7611zm-1.3706 2.5175l-0.2886 -0.359 -0.8708 1.6687 0.2156 0.4244 0.9438 -1.7341zm-1.1664 2.1428l-0.2445 -0.3521 -0.327 0.6262 0.2238 0.3641 0.3477 -0.6382z"/>
 </g>
</svg>
