<?xml version="1.0" encoding="UTF-8"?>
<!DOCTYPE svg PUBLIC "-//W3C//DTD SVG 1.1//EN" "http://www.w3.org/Graphics/SVG/1.1/DTD/svg11.dtd">
<!-- Creator: CorelDRAW -->
<svg xmlns="http://www.w3.org/2000/svg" xml:space="preserve" width="66.8714mm" height="46.0105mm" style="shape-rendering:geometricPrecision; text-rendering:geometricPrecision; image-rendering:optimizeQuality; fill-rule:evenodd; clip-rule:evenodd"
viewBox="0 0 66.8714 46.0105"
 xmlns:xlink="http://www.w3.org/1999/xlink">
 <defs>
  <style type="text/css">
   <![CDATA[
    .fil0 {fill:black}
   ]]>
  </style>
 </defs>
 <g id="Layer_x0020_1">
  <metadata id="CorelCorpID_0Corel-Layer"/>
  <path class="fil0" d="M43.787 0.834c2.3207,5.8946 4.6413,11.7891 6.962,17.6835 3.8168,0.8915 7.6337,1.7828 11.4505,2.6741 1.0993,-4.6005 2.1986,-9.2011 3.2978,-13.8017 -1.3435,4.2268 -2.6871,8.4536 -4.0306,12.6804 -2.1069,-0.5751 -4.2138,-1.1501 -6.3207,-1.7252 0.458,-3.2493 0.916,-6.4984 1.3741,-9.7475 0.5225,-1.0139 0.9908,-2.0746 2.3817,-2.3291 2.2901,0.0287 4.5802,0.0575 6.8703,0.0862 0.5527,0.102 0.9722,0.4188 1.0993,1.2077 -0.5191,8.5399 -1.0382,13.6256 -1.5573,22.1654 -0.6718,0.6615 -1.3435,1.3227 -2.0153,1.9841 0.5496,0.4889 1.0993,0.9777 1.6489,1.4664l-0.4634 12.8322c-8.9744,-1.5183 -19.6252,-2.3984 -31.0486,-2.3984 -11.4234,0 -22.0742,0.8801 -31.0486,2.3984l-0.4634 -12.8322c0.5496,-0.4887 1.0993,-0.9775 1.6489,-1.4664 -0.6718,-0.6614 -1.3435,-1.3226 -2.0153,-1.9841 -0.5191,-8.5398 -1.0382,-13.6255 -1.5573,-22.1654 0.12,-0.6087 0.4355,-1.054 1.0993,-1.2077 2.2901,-0.0287 4.5802,-0.0575 6.8703,-0.0862 1.1398,0.125 2.0325,0.7152 2.3817,2.3291 0.4581,3.2491 0.9161,6.4982 1.3741,9.7475 -2.1069,0.5751 -4.2138,1.1501 -6.3207,1.7252 -1.3435,-4.2268 -2.6871,-8.4536 -4.0306,-12.6804 1.0992,4.6006 2.1985,9.2012 3.2978,13.8017 3.8168,-0.8913 7.6337,-1.7826 11.4505,-2.6741 2.3207,-5.8944 4.6413,-11.7889 6.962,-17.6835 7.8499,-1.112 12.8527,-1.112 20.7026,0z"/>
 </g>
</svg>
